
<global>
amp_veltrack=0
ampeg_attack=0.015
ampeg_release=0.75
</global>

<group>
group_label=RR1_0-64
seq_length=4
xfin_hicc1=64
xfout_hicc1=127
xfout_locc1=64

<region>
hikey=F6
hivel=127
lokey=A#5
lovel=0
offset=4297
pitch_keycenter=A#5
sample=Sopranos_Ahh_staccato_PP_A#5_RR1.opus
tune=-1
</region>

<region>
hivel=127
key=A5
lovel=0
offset=6553
sample=Sopranos_Ahh_staccato_PP_A5_RR1.opus
tune=-8
</region>

<region>
hivel=127
key=C#5
lovel=0
offset=4884
sample=Sopranos_Ahh_staccato_PP_C#5_RR1.opus
tune=-4
</region>

<region>
hivel=127
key=D#5
lovel=0
offset=5834
sample=Sopranos_Ahh_staccato_PP_D#5_RR1.opus
tune=-13
</region>

<region>
hivel=127
key=D5
lovel=0
offset=5270
sample=Sopranos_Ahh_staccato_PP_D5_RR1.opus
tune=-10
</region>

<region>
hivel=127
key=E5
lovel=0
offset=5689
sample=Sopranos_Ahh_staccato_PP_E5_RR1.opus
tune=+3
</region>

<region>
hivel=127
key=F#5
lovel=0
offset=5508
sample=Sopranos_Ahh_staccato_PP_F#5_RR1.opus
tune=-17
</region>

<region>
hivel=127
key=F5
lovel=0
offset=3288
sample=Sopranos_Ahh_staccato_PP_F5_RR1.opus
tune=-15
</region>

<region>
hivel=127
key=G#5
lovel=0
offset=6556
sample=Sopranos_Ahh_staccato_PP_G#5_RR1.opus
tune=-6
</region>

<region>
hivel=127
key=G5
lovel=0
offset=5125
sample=Sopranos_Ahh_staccato_PP_G5_RR1.opus
tune=-14
</region>

<region>
hivel=127
key=A#4
lovel=0
offset=7113
sample=Sopranos_Ahh_staccato_PP_A#4_RR1.opus
tune=-10
</region>

<region>
hivel=127
key=A4
lovel=0
offset=3462
sample=Sopranos_Ahh_staccato_PP_A4_RR1.opus
tune=+8
</region>

<region>
hikey=C5
hivel=127
lokey=B4
lovel=0
offset=6068
pitch_keycenter=B4
sample=Sopranos_Ahh_staccato_PP_B4_RR1.opus
tune=-21
</region>

<region>
hivel=127
key=C#4
lovel=0
offset=6177
sample=Sopranos_Ahh_staccato_PP_C#4_RR1.opus
tune=-5
</region>

<region>
hikey=C4
hivel=127
lokey=F3
lovel=0
offset=2413
sample=Sopranos_Ahh_staccato_PP_C4_RR1.opus
tune=-30
</region>

<region>
hivel=127
key=D#4
lovel=0
offset=2210
sample=Sopranos_Ahh_staccato_PP_D#4_RR1.opus
tune=-12
</region>

<region>
hivel=127
key=D4
lovel=0
offset=3250
sample=Sopranos_Ahh_staccato_PP_D4_RR1.opus
tune=-21
</region>

<region>
hivel=127
key=E4
lovel=0
offset=3283
sample=Sopranos_Ahh_staccato_PP_E4_RR1.opus
tune=-19
</region>

<region>
hivel=127
key=F#4
lovel=0
offset=3799
sample=Sopranos_Ahh_staccato_PP_F#4_RR1.opus
tune=-2
</region>

<region>
hivel=127
key=F4
lovel=0
offset=4860
sample=Sopranos_Ahh_staccato_PP_F4_RR1.opus
tune=-11
</region>

<region>
hivel=127
key=G#4
lovel=0
offset=3997
sample=Sopranos_Ahh_staccato_PP_G#4_RR1.opus
tune=+6
</region>

<region>
hivel=127
key=G4
lovel=0
offset=3039
sample=Sopranos_Ahh_staccato_PP_G4_RR1.opus
tune=+8
</region>
</group>

<group>
group_label=RR2_0-64
seq_length=4
seq_position=2
xfin_hicc1=64
xfout_hicc1=127
xfout_locc1=64

<region>
hikey=F6
hivel=127
lokey=A#5
lovel=0
offset=566
pitch_keycenter=A#5
sample=Sopranos_Ahh_staccato_PP_A#5_RR2.opus
tune=-6
</region>

<region>
hivel=127
key=A5
lovel=0
offset=1878
sample=Sopranos_Ahh_staccato_PP_A5_RR2.opus
tune=-7
</region>

<region>
hivel=127
key=C#5
lovel=0
offset=4340
sample=Sopranos_Ahh_staccato_PP_C#5_RR2.opus
tune=-10
</region>

<region>
hivel=127
key=C5
lovel=0
offset=5374
sample=Sopranos_Ahh_staccato_PP_C5_RR2.opus
tune=-16
</region>

<region>
hivel=127
key=D#5
lovel=0
offset=1726
sample=Sopranos_Ahh_staccato_PP_D#5_RR2.opus
tune=-21
</region>

<region>
hivel=127
key=D5
lovel=0
offset=3193
sample=Sopranos_Ahh_staccato_PP_D5_RR2.opus
tune=-19
</region>

<region>
hivel=127
key=E5
lovel=0
offset=3607
sample=Sopranos_Ahh_staccato_PP_E5_RR2.opus
tune=+3
</region>

<region>
hivel=127
key=F#5
lovel=0
offset=6238
sample=Sopranos_Ahh_staccato_PP_F#5_RR2.opus
tune=-21
</region>

<region>
hivel=127
key=F5
lovel=0
offset=5744
sample=Sopranos_Ahh_staccato_PP_F5_RR2.opus
tune=-15
</region>

<region>
hivel=127
key=G#5
lovel=0
offset=6207
sample=Sopranos_Ahh_staccato_PP_G#5_RR2.opus
tune=-17
</region>

<region>
hivel=127
key=G5
lovel=0
offset=3697
sample=Sopranos_Ahh_staccato_PP_G5_RR2.opus
tune=-22
</region>

<region>
hivel=127
key=A#4
lovel=0
offset=3350
sample=Sopranos_Ahh_staccato_PP_A#4_RR2.opus
tune=-4
</region>

<region>
hivel=127
key=A4
lovel=0
offset=2734
sample=Sopranos_Ahh_staccato_PP_A4_RR2.opus
tune=-3
</region>

<region>
hivel=127
key=B4
lovel=0
offset=3679
sample=Sopranos_Ahh_staccato_PP_B4_RR2.opus
tune=-24
</region>

<region>
hivel=127
key=C#4
lovel=0
offset=3311
sample=Sopranos_Ahh_staccato_PP_C#4_RR2.opus
tune=-14
</region>

<region>
hikey=C4
hivel=127
lokey=F3
lovel=0
offset=3497
sample=Sopranos_Ahh_staccato_PP_C4_RR2.opus
tune=-22
</region>

<region>
hivel=127
key=D#4
lovel=0
sample=Sopranos_Ahh_staccato_PP_D#4_RR2.opus
tune=-11
</region>

<region>
hivel=127
key=D4
lovel=0
sample=Sopranos_Ahh_staccato_PP_D4_RR2.opus
tune=-14
</region>

<region>
hivel=127
key=E4
lovel=0
offset=850
sample=Sopranos_Ahh_staccato_PP_E4_RR2.opus
tune=-9
</region>

<region>
hivel=127
key=F#4
lovel=0
offset=575
sample=Sopranos_Ahh_staccato_PP_F#4_RR2.opus
tune=-3
</region>

<region>
hivel=127
key=F4
lovel=0
offset=3586
sample=Sopranos_Ahh_staccato_PP_F4_RR2.opus
tune=-15
</region>

<region>
hivel=127
key=G#4
lovel=0
offset=1862
sample=Sopranos_Ahh_staccato_PP_G#4_RR2.opus
tune=+9
</region>

<region>
hivel=127
key=G4
lovel=0
offset=252
sample=Sopranos_Ahh_staccato_PP_G4_RR2.opus
tune=-1
</region>
</group>

<group>
group_label=RR3_0-64
seq_length=4
seq_position=3
xfin_hicc1=64
xfout_hicc1=127
xfout_locc1=64

<region>
hikey=F6
hivel=127
lokey=A#5
lovel=0
offset=279
pitch_keycenter=A#5
sample=Sopranos_Ahh_staccato_PP_A#5_RR3.opus
tune=+8
</region>

<region>
hivel=127
key=A5
lovel=0
offset=6405
sample=Sopranos_Ahh_staccato_PP_A5_RR3.opus
tune=-2
</region>

<region>
hivel=127
key=C#5
lovel=0
offset=5359
sample=Sopranos_Ahh_staccato_PP_C#5_RR3.opus
tune=-5
</region>

<region>
hivel=127
key=C5
lovel=0
offset=6973
sample=Sopranos_Ahh_staccato_PP_C5_RR3.opus
tune=-15
</region>

<region>
hivel=127
key=D#5
lovel=0
offset=3228
sample=Sopranos_Ahh_staccato_PP_D#5_RR3.opus
tune=-13
</region>

<region>
hivel=127
key=D5
lovel=0
offset=4394
sample=Sopranos_Ahh_staccato_PP_D5_RR3.opus
tune=-16
</region>

<region>
hivel=127
key=E5
lovel=0
offset=5499
sample=Sopranos_Ahh_staccato_PP_E5_RR3.opus
tune=+1
</region>

<region>
hivel=127
key=F#5
lovel=0
offset=5555
sample=Sopranos_Ahh_staccato_PP_F#5_RR3.opus
tune=-23
</region>

<region>
hivel=127
key=F5
lovel=0
offset=7744
sample=Sopranos_Ahh_staccato_PP_F5_RR3.opus
tune=-10
</region>

<region>
hivel=127
key=G#5
lovel=0
offset=4575
sample=Sopranos_Ahh_staccato_PP_G#5_RR3.opus
tune=-12
</region>

<region>
hivel=127
key=G5
lovel=0
offset=4263
sample=Sopranos_Ahh_staccato_PP_G5_RR3.opus
tune=-21
</region>

<region>
hivel=127
key=A#4
lovel=0
offset=2080
sample=Sopranos_Ahh_staccato_PP_A#4_RR3.opus
tune=-6
</region>

<region>
hivel=127
key=A4
lovel=0
offset=3773
sample=Sopranos_Ahh_staccato_PP_A4_RR3.opus
</region>

<region>
hivel=127
key=B4
lovel=0
offset=6741
sample=Sopranos_Ahh_staccato_PP_B4_RR3.opus
tune=-19
</region>

<region>
hivel=127
key=C#4
lovel=0
offset=1114
sample=Sopranos_Ahh_staccato_PP_C#4_RR3.opus
tune=-12
</region>

<region>
hikey=C4
hivel=127
lokey=F3
lovel=0
offset=1696
sample=Sopranos_Ahh_staccato_PP_C4_RR3.opus
tune=-24
</region>

<region>
hivel=127
key=D#4
lovel=0
offset=2905
sample=Sopranos_Ahh_staccato_PP_D#4_RR3.opus
tune=-14
</region>

<region>
hivel=127
key=D4
lovel=0
offset=13
sample=Sopranos_Ahh_staccato_PP_D4_RR3.opus
tune=-19
</region>

<region>
hivel=127
key=E4
lovel=0
offset=702
sample=Sopranos_Ahh_staccato_PP_E4_RR3.opus
tune=-9
</region>

<region>
hivel=127
key=F#4
lovel=0
offset=3505
sample=Sopranos_Ahh_staccato_PP_F#4_RR3.opus
tune=+1
</region>

<region>
hivel=127
key=F4
lovel=0
offset=1873
sample=Sopranos_Ahh_staccato_PP_F4_RR3.opus
tune=-8
</region>

<region>
hivel=127
key=G#4
lovel=0
offset=3613
sample=Sopranos_Ahh_staccato_PP_G#4_RR3.opus
tune=+4
</region>

<region>
hivel=127
key=G4
lovel=0
offset=6848
sample=Sopranos_Ahh_staccato_PP_G4_RR3.opus
tune=+7
</region>
</group>

<group>
group_label=RR4_0-64
seq_length=4
seq_position=4
xfin_hicc1=64
xfout_hicc1=127
xfout_locc1=64

<region>
hikey=F6
hivel=127
lokey=A#5
lovel=0
offset=3009
pitch_keycenter=A#5
sample=Sopranos_Ahh_staccato_PP_A#5_RR4.opus
tune=-1
</region>

<region>
hivel=127
key=A5
lovel=0
offset=4838
sample=Sopranos_Ahh_staccato_PP_A5_RR4.opus
</region>

<region>
hivel=127
key=C#5
lovel=0
offset=2289
sample=Sopranos_Ahh_staccato_PP_C#5_RR4.opus
tune=-7
</region>

<region>
hivel=127
key=C5
lovel=0
offset=7767
sample=Sopranos_Ahh_staccato_PP_C5_RR4.opus
tune=-6
</region>

<region>
hivel=127
key=D#5
lovel=0
offset=4070
sample=Sopranos_Ahh_staccato_PP_D#5_RR4.opus
tune=-13
</region>

<region>
hivel=127
key=D5
lovel=0
offset=4675
sample=Sopranos_Ahh_staccato_PP_D5_RR4.opus
tune=-13
</region>

<region>
hivel=127
key=E5
lovel=0
offset=6847
sample=Sopranos_Ahh_staccato_PP_E5_RR4.opus
tune=+1
</region>

<region>
hivel=127
key=F#5
lovel=0
offset=5199
sample=Sopranos_Ahh_staccato_PP_F#5_RR4.opus
tune=-22
</region>

<region>
hivel=127
key=F5
lovel=0
offset=6622
sample=Sopranos_Ahh_staccato_PP_F5_RR4.opus
tune=-7
</region>

<region>
hivel=127
key=G#5
lovel=0
offset=4637
sample=Sopranos_Ahh_staccato_PP_G#5_RR4.opus
tune=-9
</region>

<region>
hivel=127
key=G5
lovel=0
offset=3217
sample=Sopranos_Ahh_staccato_PP_G5_RR4.opus
tune=-20
</region>

<region>
hivel=127
key=A#4
lovel=0
offset=2983
sample=Sopranos_Ahh_staccato_PP_A#4_RR4.opus
tune=+5
</region>

<region>
hivel=127
key=A4
lovel=0
offset=6326
sample=Sopranos_Ahh_staccato_PP_A4_RR4.opus
tune=-3
</region>

<region>
hivel=127
key=B4
lovel=0
offset=3814
sample=Sopranos_Ahh_staccato_PP_B4_RR4.opus
tune=-24
</region>

<region>
hivel=127
key=C#4
lovel=0
offset=3382
sample=Sopranos_Ahh_staccato_PP_C#4_RR4.opus
tune=-11
</region>

<region>
hikey=C4
hivel=127
lokey=F3
lovel=0
offset=2097
sample=Sopranos_Ahh_staccato_PP_C4_RR4.opus
tune=-27
</region>

<region>
hivel=127
key=D#4
lovel=0
offset=4901
sample=Sopranos_Ahh_staccato_PP_D#4_RR4.opus
tune=-10
</region>

<region>
hivel=127
key=D4
lovel=0
sample=Sopranos_Ahh_staccato_PP_D4_RR4.opus
tune=-13
</region>

<region>
hivel=127
key=E4
lovel=0
offset=68
sample=Sopranos_Ahh_staccato_PP_E4_RR4.opus
</region>

<region>
hivel=127
key=F#4
lovel=0
offset=4214
sample=Sopranos_Ahh_staccato_PP_F#4_RR4.opus
tune=+6
</region>

<region>
hivel=127
key=F4
lovel=0
offset=2823
sample=Sopranos_Ahh_staccato_PP_F4_RR4.opus
tune=-9
</region>

<region>
hivel=127
key=G#4
lovel=0
offset=4715
sample=Sopranos_Ahh_staccato_PP_G#4_RR4.opus
tune=+12
</region>

<region>
hivel=127
key=G4
lovel=0
offset=2194
sample=Sopranos_Ahh_staccato_PP_G4_RR4.opus
tune=+2
</region>
</group>

<group>
group_label=RR1_65-127
seq_length=4
xfin_hicc1=127
xfin_locc1=65
xfout_hicc1=127
xfout_locc1=127

<region>
hivel=127
key=A#4
lovel=0
offset=5456
sample=Sopranos_Ahh_staccato_FF_A#4_RR1.opus
tune=+3
</region>

<region>
hikey=F6
hivel=127
lokey=A#5
lovel=0
offset=6100
pitch_keycenter=A#5
sample=Sopranos_Ahh_staccato_FF_A#5_RR1.opus
tune=-8
</region>

<region>
hivel=127
key=A4
lovel=0
offset=4777
sample=Sopranos_Ahh_staccato_FF_A4_RR1.opus
tune=+2
</region>

<region>
hivel=127
key=A5
lovel=0
offset=5716
sample=Sopranos_Ahh_staccato_FF_A5_RR1.opus
tune=-13
</region>

<region>
hivel=127
key=B4
lovel=0
offset=4911
sample=Sopranos_Ahh_staccato_FF_B4_RR1.opus
tune=+6
</region>

<region>
hivel=127
key=C#5
lovel=0
offset=1490
sample=Sopranos_Ahh_staccato_FF_C#5_RR1.opus
tune=-18
</region>

<region>
hivel=127
key=C5
lovel=0
offset=5770
sample=Sopranos_Ahh_staccato_FF_C5_RR1.opus
tune=-15
</region>

<region>
hivel=127
key=D#4
lovel=0
offset=4801
sample=Sopranos_Ahh_staccato_FF_D#4_RR1.opus
tune=-14
</region>

<region>
hivel=127
key=D#5
lovel=0
offset=2513
sample=Sopranos_Ahh_staccato_FF_D#5_RR1.opus
tune=-19
</region>

<region>
hivel=127
key=D4
lovel=0
offset=2642
sample=Sopranos_Ahh_staccato_FF_D4_RR1.opus
tune=-1
</region>

<region>
hivel=127
key=D5
lovel=0
offset=5708
sample=Sopranos_Ahh_staccato_FF_D5_RR1.opus
tune=-15
</region>

<region>
hivel=127
key=E4
lovel=0
offset=3291
sample=Sopranos_Ahh_staccato_FF_E4_RR1.opus
tune=-20
</region>

<region>
hivel=127
key=E5
lovel=0
offset=2798
sample=Sopranos_Ahh_staccato_FF_E5_RR1.opus
tune=+2
</region>

<region>
hivel=127
key=F#4
lovel=0
offset=3068
sample=Sopranos_Ahh_staccato_FF_F#4_RR1.opus
tune=-18
</region>

<region>
hivel=127
key=F#5
lovel=0
offset=3885
sample=Sopranos_Ahh_staccato_FF_F#5_RR1.opus
tune=+3
</region>

<region>
hivel=127
key=F4
lovel=0
offset=4585
sample=Sopranos_Ahh_staccato_FF_F4_RR1.opus
tune=-19
</region>

<region>
hivel=127
key=F5
lovel=0
offset=2526
sample=Sopranos_Ahh_staccato_FF_F5_RR1.opus
tune=-4
</region>

<region>
hivel=127
key=G#4
lovel=0
offset=4282
sample=Sopranos_Ahh_staccato_FF_G#4_RR1.opus
tune=+4
</region>

<region>
hivel=127
key=G#5
lovel=0
offset=7001
sample=Sopranos_Ahh_staccato_FF_G#5_RR1.opus
tune=+10
</region>

<region>
hivel=127
key=G4
lovel=0
offset=2963
sample=Sopranos_Ahh_staccato_FF_G4_RR1.opus
tune=-9
</region>

<region>
hivel=127
key=G5
lovel=0
offset=6292
sample=Sopranos_Ahh_staccato_FF_G5_RR1.opus
tune=-14
</region>

<region>
hivel=127
key=C#4
lovel=0
offset=3490
sample=Sopranos_Ahh_staccato_FF_C#4_RR1.opus
tune=-1
</region>

<region>
hikey=C4
hivel=127
lokey=F3
lovel=0
offset=3995
sample=Sopranos_Ahh_staccato_FF_C4_RR1.opus
tune=+2
</region>
</group>

<group>
group_label=RR2_65-127
seq_length=4
seq_position=2
xfin_hicc1=127
xfin_locc1=65
xfout_hicc1=127
xfout_locc1=127

<region>
hivel=127
key=A#4
lovel=0
offset=4081
sample=Sopranos_Ahh_staccato_FF_A#4_RR2.opus
tune=+7
</region>

<region>
hikey=F6
hivel=127
lokey=A#5
lovel=0
offset=2660
pitch_keycenter=A#5
sample=Sopranos_Ahh_staccato_FF_A#5_RR2.opus
tune=-5
</region>

<region>
hivel=127
key=A4
lovel=0
offset=3869
sample=Sopranos_Ahh_staccato_FF_A4_RR2.opus
tune=+5
</region>

<region>
hivel=127
key=A5
lovel=0
offset=4880
sample=Sopranos_Ahh_staccato_FF_A5_RR2.opus
tune=-7
</region>

<region>
hivel=127
key=B4
lovel=0
offset=4092
sample=Sopranos_Ahh_staccato_FF_B4_RR2.opus
</region>

<region>
hivel=127
key=C#5
lovel=0
offset=5139
sample=Sopranos_Ahh_staccato_FF_C#5_RR2.opus
tune=-4
</region>

<region>
hivel=127
key=C5
lovel=0
offset=5640
sample=Sopranos_Ahh_staccato_FF_C5_RR2.opus
tune=-7
</region>

<region>
hivel=127
key=D#4
lovel=0
offset=2489
sample=Sopranos_Ahh_staccato_FF_D#4_RR2.opus
tune=-14
</region>

<region>
hivel=127
key=D#5
lovel=0
offset=3471
sample=Sopranos_Ahh_staccato_FF_D#5_RR2.opus
tune=-16
</region>

<region>
hivel=127
key=D4
lovel=0
offset=1659
sample=Sopranos_Ahh_staccato_FF_D4_RR2.opus
tune=+6
</region>

<region>
hivel=127
key=D5
lovel=0
offset=4669
sample=Sopranos_Ahh_staccato_FF_D5_RR2.opus
tune=-23
</region>

<region>
hivel=127
key=E4
lovel=0
offset=2138
sample=Sopranos_Ahh_staccato_FF_E4_RR2.opus
tune=-21
</region>

<region>
hivel=127
key=E5
lovel=0
sample=Sopranos_Ahh_staccato_FF_E5_RR2.opus
tune=+2
</region>

<region>
hivel=127
key=F#4
lovel=0
offset=2921
sample=Sopranos_Ahh_staccato_FF_F#4_RR2.opus
tune=-14
</region>

<region>
hivel=127
key=F#5
lovel=0
offset=6451
sample=Sopranos_Ahh_staccato_FF_F#5_RR2.opus
tune=+5
</region>

<region>
hivel=127
key=F4
lovel=0
offset=2207
sample=Sopranos_Ahh_staccato_FF_F4_RR2.opus
tune=-17
</region>

<region>
hivel=127
key=F5
lovel=0
offset=3432
sample=Sopranos_Ahh_staccato_FF_F5_RR2.opus
tune=+2
</region>

<region>
hivel=127
key=G#4
lovel=0
offset=4218
sample=Sopranos_Ahh_staccato_FF_G#4_RR2.opus
tune=-5
</region>

<region>
hivel=127
key=G#5
lovel=0
offset=6162
sample=Sopranos_Ahh_staccato_FF_G#5_RR2.opus
tune=+11
</region>

<region>
hivel=127
key=G4
lovel=0
offset=3757
sample=Sopranos_Ahh_staccato_FF_G4_RR2.opus
tune=-9
</region>

<region>
hivel=127
key=G5
lovel=0
offset=2399
sample=Sopranos_Ahh_staccato_FF_G5_RR2.opus
tune=-11
</region>

<region>
hivel=127
key=C#4
lovel=0
offset=1435
sample=Sopranos_Ahh_staccato_FF_C#4_RR2.opus
tune=+6
</region>

<region>
hikey=C4
hivel=127
lokey=F3
lovel=0
offset=1902
sample=Sopranos_Ahh_staccato_FF_C4_RR2.opus
tune=+4
</region>
</group>

<group>
group_label=RR3_65-127
seq_length=4
seq_position=3
xfin_hicc1=127
xfin_locc1=65
xfout_hicc1=127
xfout_locc1=127

<region>
hivel=127
key=A#4
lovel=0
offset=3906
sample=Sopranos_Ahh_staccato_FF_A#4_RR3.opus
tune=-2
</region>

<region>
hikey=F6
hivel=127
lokey=A#5
lovel=0
offset=2345
pitch_keycenter=A#5
sample=Sopranos_Ahh_staccato_FF_A#5_RR3.opus
tune=-9
</region>

<region>
hivel=127
key=A4
lovel=0
offset=5078
sample=Sopranos_Ahh_staccato_FF_A4_RR3.opus
tune=+1
</region>

<region>
hivel=127
key=A5
lovel=0
offset=4090
sample=Sopranos_Ahh_staccato_FF_A5_RR3.opus
tune=-5
</region>

<region>
hivel=127
key=B4
lovel=0
offset=4263
sample=Sopranos_Ahh_staccato_FF_B4_RR3.opus
tune=+4
</region>

<region>
hivel=127
key=C#5
lovel=0
offset=4667
sample=Sopranos_Ahh_staccato_FF_C#5_RR3.opus
tune=-7
</region>

<region>
hivel=127
key=C5
lovel=0
offset=4068
sample=Sopranos_Ahh_staccato_FF_C5_RR3.opus
tune=-13
</region>

<region>
hivel=127
key=D#4
lovel=0
offset=1606
sample=Sopranos_Ahh_staccato_FF_D#4_RR3.opus
tune=-13
</region>

<region>
hivel=127
key=D#5
lovel=0
offset=4884
sample=Sopranos_Ahh_staccato_FF_D#5_RR3.opus
tune=-16
</region>

<region>
hivel=127
key=D4
lovel=0
offset=3806
sample=Sopranos_Ahh_staccato_FF_D4_RR3.opus
tune=+2
</region>

<region>
hivel=127
key=D5
lovel=0
offset=1424
sample=Sopranos_Ahh_staccato_FF_D5_RR3.opus
tune=-17
</region>

<region>
hivel=127
key=E4
lovel=0
offset=2854
sample=Sopranos_Ahh_staccato_FF_E4_RR3.opus
tune=-17
</region>

<region>
hivel=127
key=E5
lovel=0
offset=1837
sample=Sopranos_Ahh_staccato_FF_E5_RR3.opus
tune=+1
</region>

<region>
hivel=127
key=F#4
lovel=0
offset=2489
sample=Sopranos_Ahh_staccato_FF_F#4_RR3.opus
tune=-10
</region>

<region>
hivel=127
key=F#5
lovel=0
offset=4097
sample=Sopranos_Ahh_staccato_FF_F#5_RR3.opus
tune=-5
</region>

<region>
hivel=127
key=F4
lovel=0
offset=2785
sample=Sopranos_Ahh_staccato_FF_F4_RR3.opus
tune=-15
</region>

<region>
hivel=127
key=F5
lovel=0
offset=4647
sample=Sopranos_Ahh_staccato_FF_F5_RR3.opus
tune=+1
</region>

<region>
hivel=127
key=G#4
lovel=0
offset=2953
sample=Sopranos_Ahh_staccato_FF_G#4_RR3.opus
tune=+1
</region>

<region>
hivel=127
key=G#5
lovel=0
offset=3892
sample=Sopranos_Ahh_staccato_FF_G#5_RR3.opus
tune=+14
</region>

<region>
hivel=127
key=G4
lovel=0
offset=4347
sample=Sopranos_Ahh_staccato_FF_G4_RR3.opus
tune=-14
</region>

<region>
hivel=127
key=G5
lovel=0
offset=4599
sample=Sopranos_Ahh_staccato_FF_G5_RR3.opus
tune=-28
</region>

<region>
hivel=127
key=C#4
lovel=0
offset=3889
sample=Sopranos_Ahh_staccato_FF_C#4_RR3.opus
tune=+4
</region>

<region>
hikey=C4
hivel=127
lokey=F3
lovel=0
offset=3748
sample=Sopranos_Ahh_staccato_FF_C4_RR3.opus
tune=+10
</region>
</group>

<group>
group_label=RR4_65-127
seq_length=4
seq_position=4
xfin_hicc1=127
xfin_locc1=65
xfout_hicc1=127
xfout_locc1=127

<region>
hivel=127
key=A#4
lovel=0
offset=4911
sample=Sopranos_Ahh_staccato_FF_A#4_RR4.opus
tune=+2
</region>

<region>
hikey=F6
hivel=127
lokey=A#5
lovel=0
offset=1319
pitch_keycenter=A#5
sample=Sopranos_Ahh_staccato_FF_A#5_RR4.opus
tune=-9
</region>

<region>
hivel=127
key=A4
lovel=0
offset=6868
sample=Sopranos_Ahh_staccato_FF_A4_RR4.opus
tune=-6
</region>

<region>
hivel=127
key=A5
lovel=0
offset=3574
sample=Sopranos_Ahh_staccato_FF_A5_RR4.opus
tune=+5
</region>

<region>
hivel=127
key=B4
lovel=0
offset=4648
sample=Sopranos_Ahh_staccato_FF_B4_RR4.opus
tune=-2
</region>

<region>
hivel=127
key=C#5
lovel=0
offset=5652
sample=Sopranos_Ahh_staccato_FF_C#5_RR4.opus
tune=-6
</region>

<region>
hivel=127
key=C5
lovel=0
offset=5434
sample=Sopranos_Ahh_staccato_FF_C5_RR4.opus
tune=-8
</region>

<region>
hivel=127
key=D#4
lovel=0
offset=4632
sample=Sopranos_Ahh_staccato_FF_D#4_RR4.opus
tune=-10
</region>

<region>
hivel=127
key=D#5
lovel=0
offset=2765
sample=Sopranos_Ahh_staccato_FF_D#5_RR4.opus
tune=-6
</region>

<region>
hivel=127
key=D4
lovel=0
offset=2784
sample=Sopranos_Ahh_staccato_FF_D4_RR4.opus
tune=+5
</region>

<region>
hivel=127
key=D5
lovel=0
offset=6209
sample=Sopranos_Ahh_staccato_FF_D5_RR4.opus
tune=-19
</region>

<region>
hivel=127
key=E4
lovel=0
offset=2335
sample=Sopranos_Ahh_staccato_FF_E4_RR4.opus
tune=-15
</region>

<region>
hivel=127
key=E5
lovel=0
offset=1360
sample=Sopranos_Ahh_staccato_FF_E5_RR4.opus
tune=+2
</region>

<region>
hivel=127
key=F#4
lovel=0
offset=4131
sample=Sopranos_Ahh_staccato_FF_F#4_RR4.opus
tune=-10
</region>

<region>
hivel=127
key=F#5
lovel=0
offset=5141
sample=Sopranos_Ahh_staccato_FF_F#5_RR4.opus
tune=-5
</region>

<region>
hivel=127
key=F4
lovel=0
offset=5202
sample=Sopranos_Ahh_staccato_FF_F4_RR4.opus
tune=-10
</region>

<region>
hivel=127
key=F5
lovel=0
offset=5356
sample=Sopranos_Ahh_staccato_FF_F5_RR4.opus
tune=-3
</region>

<region>
hivel=127
key=G#4
lovel=0
offset=1595
sample=Sopranos_Ahh_staccato_FF_G#4_RR4.opus
tune=+1
</region>

<region>
hivel=127
key=G#5
lovel=0
offset=4629
sample=Sopranos_Ahh_staccato_FF_G#5_RR4.opus
tune=+10
</region>

<region>
hivel=127
key=G4
lovel=0
offset=2752
sample=Sopranos_Ahh_staccato_FF_G4_RR4.opus
tune=-4
</region>

<region>
hivel=127
key=G5
lovel=0
offset=3381
sample=Sopranos_Ahh_staccato_FF_G5_RR4.opus
tune=-23
</region>

<region>
hivel=127
key=C#4
lovel=0
offset=3561
sample=Sopranos_Ahh_staccato_FF_C#4_RR4.opus
tune=+1
</region>

<region>
hikey=C4
hivel=127
lokey=F3
lovel=0
offset=1499
sample=Sopranos_Ahh_staccato_FF_C4_RR4.opus
tune=+20
</region>
</group>